PathFileType	4	(X/Y/Z)	./resultDataOpenSim/trcMotMarkerGrf/sub06/qtm-01-06.trc
DataRate	CameraRate	NumFrames	NumMarkers	Units	OrigDataRate	OrigDataStartFrame	OrigNumFrames
250.000000	250.000000	10	24	m	250.000000	251	501
Frame#	Time	L.Toe.Tip			R.Toe.Tip			L.Ankle.Lat			R.Ankle.Lat			L.Ankle.Med			R.Ankle.Med			L.Heel			R.Heel			L.Knee.Lat			R.Knee.Lat			L.Knee.Med			R.Knee.Med			L.Thigh.Upper			R.Thigh.Upper			L.ASIS			R.ASIS			V.Sacral			L.Acromium			R.Acromium			C7			L.Elbow			R.Elbow			L.Wrist.Lat			R.Wrist.Lat
		X1	Y1	Z1	X2	Y2	Z2	X3	Y3	Z3	X4	Y4	Z4	X5	Y5	Z5	X6	Y6	Z6	X7	Y7	Z7	X8	Y8	Z8	X9	Y9	Z9	X10	Y10	Z10	X11	Y11	Z11	X12	Y12	Z12	X13	Y13	Z13	X14	Y14	Z14	X15	Y15	Z15	X16	Y16	Z16	X17	Y17	Z17	X18	Y18	Z18	X19	Y19	Z19	X20	Y20	Z20	X21	Y21	Z21	X22	Y22	Z22	X23	Y23	Z23	X24	Y24	Z24

251	1	0.10490935	0.034302805	-0.050568412	0.50217231	0.08175245	0.12499941	-0.018555767	0.075440123	-0.069878459	0.36479952	0.08541657	0.12254193	-0.013015232	0.090818324	0.016975086	0.39731174	0.11610617	0.042241189	-0.092342309	0.053085778	-0.02044787	0.33017288	0.057887731	0.050078556	0.094074549	0.42988649	-0.093796619	0.35689113	0.48104672	0.14755661	0.078666663	0.4338906	0.02672983	0.34327788	0.46460298	0.020312355	0.15286211	0.81465069	-0.16590198	0.17642855	0.80864365	0.18111541	0.23317019	0.85879302	-0.12763044	0.25650374	0.86556888	0.11692286	0.060196575	0.93338337	0.012789736	0.18309505	1.3443662	-0.18379136	0.18196314	1.3335903	0.17873304	0.10482294	1.3744364	-0.0048804948	0.18436094	1.020668	-0.25563063	0.0505861	1.0458779	0.23540087	0.40696217	0.9052963	-0.23138168	0.13223365	0.81908038	0.26188702
252	1.004	0.10494502	0.034261456	-0.050572991	0.52097125	0.084941782	0.12420713	-0.018308853	0.075849817	-0.069783617	0.38338476	0.084357993	0.12267783	-0.012583623	0.091234312	0.017068832	0.41449101	0.11582672	0.042103244	-0.092178461	0.053836963	-0.020280029	0.3492927	0.055602241	0.050421832	0.096421088	0.42954529	-0.093846587	0.36331461	0.47921683	0.14702925	0.081501359	0.43364125	0.026668707	0.34951887	0.46231492	0.019663108	0.15779783	0.81368987	-0.16599884	0.18341527	0.80699302	0.18132513	0.23887421	0.85755329	-0.12809895	0.26336523	0.86390262	0.11676899	0.068227862	0.93169352	0.012494415	0.18944945	1.3430559	-0.18374701	0.18808406	1.3322212	0.17888626	0.11120235	1.3733177	-0.0048553853	0.19245268	1.0194295	-0.25621908	0.055575993	1.0450727	0.23505052	0.4163501	0.9065982	-0.23031797	0.13553043	0.8178558	0.26240373
253	1.008	0.10497558	0.034218362	-0.050564885	0.53940319	0.088455066	0.12332994	-0.018052726	0.076276291	-0.069721253	0.40170252	0.083677049	0.12291513	-0.012163032	0.091636726	0.017128788	0.43140537	0.11582346	0.042018521	-0.092012373	0.054618421	-0.020164312	0.36819727	0.05359002	0.050964162	0.098860154	0.4291616	-0.093906575	0.36967445	0.47729545	0.14645842	0.084353552	0.43332655	0.026623229	0.35572668	0.45990155	0.018977859	0.16273391	0.8126888	-0.16608891	0.19025842	0.80533662	0.18122173	0.2444815	0.85623713	-0.12862768	0.27018734	0.86216208	0.11655367	0.076023244	0.93023312	0.012728988	0.19582067	1.3416948	-0.18369291	0.19419651	1.330815	0.17904603	0.11758104	1.3721643	-0.0048182867	0.20073886	1.0180843	-0.25663808	0.060620378	1.0442208	0.23469763	0.42566634	0.90783012	-0.22928475	0.13891624	0.81661834	0.26293359
254	1.012	0.10501037	0.034179787	-0.050553979	0.55742414	0.092265253	0.12238058	-0.017775409	0.076705182	-0.069684485	0.41976498	0.083322377	0.12322046	-0.011753974	0.092027852	0.017158402	0.44800431	0.11609285	0.042001774	-0.091840053	0.055432491	-0.020099078	0.38682829	0.051828943	0.051731627	0.10140541	0.42874267	-0.09399862	0.37597208	0.47528971	0.14582715	0.087272581	0.43293973	0.026586264	0.36191024	0.45738016	0.018241798	0.16767876	0.81163445	-0.16608288	0.19707178	0.80378667	0.18065058	0.25000138	0.85485608	-0.12920828	0.27707678	0.86039244	0.11634714	0.083648812	0.92891462	0.014128694	0.20220582	1.3402891	-0.18362992	0.20030046	1.3293769	0.17921374	0.1239643	1.3709806	-0.0047639401	0.20965088	1.0164235	-0.25663946	0.065719685	1.0433306	0.23434846	0.43491402	0.90898959	-0.22826456	0.14227384	0.81533598	0.26342732
255	1.016	0.10504967	0.034148543	-0.050550336	0.57499359	0.096333977	0.12138771	-0.017473397	0.077124504	-0.069658656	0.43762031	0.083196432	0.12355543	-0.011348328	0.092418062	0.017166025	0.46423255	0.11661338	0.04204191	-0.09166026	0.056281783	-0.020076946	0.40510915	0.050358061	0.052689049	0.10407165	0.42829402	-0.094129562	0.38221436	0.47320917	0.14513133	0.090342092	0.43247711	0.026533492	0.36807359	0.45476966	0.017432062	0.1726372	0.81055209	-0.16597171	0.20403582	0.80231946	0.17982114	0.25553672	0.85345817	-0.12976059	0.28408411	0.85862015	0.11617331	0.091040355	0.92770735	0.01617942	0.20860175	1.3388432	-0.18355784	0.20639862	1.3279119	0.17939428	0.13035686	1.3697667	-0.00469651	0.21950507	1.0142854	-0.25603229	0.070883687	1.0423973	0.23401094	0.44410293	0.9100662	-0.22722612	0.14557963	0.8139987	0.26386646
256	1.02	0.10509008	0.034124688	-0.05056224	0.59207723	0.1006113	0.12037659	-0.017145678	0.077527327	-0.069623889	0.45525044	0.08325115	0.12390901	-0.010932337	0.092818419	0.017158717	0.48004863	0.11735534	0.042119785	-0.091474031	0.05716505	-0.020091998	0.42295499	0.04924826	0.053766088	0.10686005	0.42781437	-0.094287774	0.38843295	0.47108047	0.14439124	0.093603818	0.43194662	0.026437603	0.3742312	0.4520928	0.016519351	0.177614	0.80946827	-0.16576507	0.21116975	0.80079943	0.17908515	0.2612318	0.85209922	-0.13016361	0.29118654	0.85685093	0.11600767	0.097722345	0.92661701	0.017662339	0.21500562	1.3373613	-0.18347699	0.21249895	1.3264237	0.17959097	0.13675947	1.3685169	-0.0046240202	0.22987802	1.0118213	-0.25506094	0.07612092	1.0414118	0.23368894	0.45323999	0.911058	-0.22616088	0.14891726	0.81261765	0.26428034
257	1.024	0.10512763	0.034105041	-0.050586543	0.60864128	0.10504585	0.1193463	-0.016779967	0.077912756	-0.069576205	0.47253966	0.083551016	0.12432316	-0.010496186	0.093234631	0.01713731	0.49542379	0.11827673	0.042233962	-0.091280878	0.058083586	-0.020142051	0.4402948	0.048517277	0.054943526	0.10976396	0.42730367	-0.094460683	0.39465153	0.46893114	0.14364535	0.097011185	0.4313749	0.026301596	0.38041577	0.44937655	0.015481577	0.18261691	0.80838929	-0.1654653	0.21840449	0.79912963	0.17865204	0.26711049	0.85078822	-0.13040015	0.29833466	0.85508389	0.11581844	0.10348696	0.92555066	0.018341298	0.22141733	1.3358484	-0.18338456	0.21861109	1.3249136	0.17980156	0.14316645	1.3672308	-0.0045457339	0.23973458	1.0094669	-0.25432494	0.081431709	1.0403705	0.23338484	0.46232341	0.91197174	-0.22508633	0.15237529	0.81120909	0.26470621
258	1.028	0.10515922	0.034084534	-0.050608694	0.62464986	0.10958605	0.11827745	-0.01635281	0.078290571	-0.069553592	0.48934018	0.084221605	0.12486141	-0.010040726	0.09366769	0.017097239	0.51031919	0.11933325	0.042394007	-0.091078469	0.059044448	-0.020229934	0.45708148	0.048103937	0.056255919	0.1127789	0.42677026	-0.094643242	0.40085907	0.46677631	0.14293983	0.10046626	0.43079548	0.026161828	0.3866559	0.44665315	0.01432679	0.18765471	0.80728957	-0.16510401	0.22570782	0.79731119	0.17854647	0.27306211	0.84948957	-0.13057103	0.30549096	0.85331997	0.1155889	0.10875511	0.92437752	0.019287896	0.22784094	1.3343091	-0.18327218	0.22473656	1.3233836	0.1800221	0.1495707	1.3659226	-0.0044508361	0.24846139	1.0075318	-0.25416396	0.086812728	1.0392753	0.2331017	0.47134639	0.91281254	-0.22402172	0.15597277	0.80978254	0.26515645
259	1.032	0.10518398	0.034060258	-0.050616801	0.64007388	0.11416423	0.11715831	-0.015854932	0.07868238	-0.069611382	0.50556398	0.085324994	0.12552394	-0.0095753089	0.094117039	0.017034011	0.52468265	0.12049647	0.042581558	-0.090866147	0.060056569	-0.020361792	0.47328348	0.047919883	0.057708364	0.11590086	0.42622395	-0.094830793	0.40704832	0.46463841	0.14232799	0.10391698	0.43022439	0.026047664	0.39294517	0.44396331	0.01310067	0.19273506	0.80611678	-0.16474651	0.23310311	0.79540698	0.17870216	0.27898718	0.84816859	-0.13076311	0.31264815	0.85156895	0.11532127	0.11412142	0.92306706	0.021205388	0.23427929	1.3327472	-0.1831325	0.23086644	1.3218393	0.18025283	0.15597303	1.3646063	-0.0043332748	0.25635812	1.0059774	-0.25442742	0.092259817	1.0381313	0.23284134	0.48029975	0.91357791	-0.22297313	0.15968762	0.80833863	0.26562616
260	1.036	0.10520263	0.034032082	-0.050609245	0.65489029	0.11870033	0.11599044	-0.015311204	0.07911081	-0.069758638	0.52118253	0.086811554	0.12622347	-0.0091097564	0.094586578	0.016945608	0.53848165	0.12174039	0.042738359	-0.090644883	0.061129905	-0.020539346	0.48888042	0.047893636	0.059214437	0.11912605	0.42567007	-0.095017789	0.41323439	0.4625594	0.1418508	0.10740024	0.42965715	0.025952238	0.39923985	0.44136064	0.011874564	0.19786721	0.80482419	-0.1644455	0.24064661	0.79349985	0.17903853	0.28487097	0.84681166	-0.13097597	0.31982976	0.84985419	0.11503173	0.1199902	0.92165467	0.023467631	0.24073051	1.331167	-0.18296755	0.23699226	1.3202866	0.1804981	0.16238161	1.3632808	-0.0042001301	0.26407669	1.0045913	-0.25482358	0.097764867	1.036947	0.23260376	0.48917503	0.91425977	-0.22193422	0.16350018	0.80687586	0.26610698
